PathFileType	4	(X/Y/Z)	/Users/itak/Documents/Research/Walk-IL/dataset/trc/00491_00167.trc
DataRate	CameraRate	NumFrames	NumMarkers	Units	OrigDataRate	OrigDataStartFrame	OrigNumFrames
100.000000	100.000000	4	53	mm	100.000000	345	552
Frame#	Time	RPSI			LPSI			L3			STRN			T10			C7			CLAV			RBAK			LBAK			LSHO			LUPA			LAEL			LAOL			LWTS			LWPS			LFRA			LIFD			LHPS			LHTS			RSHO			RUPA			RAEL			RAOL			RWTS			RWPS			RFRA			RIFD			RHTS			RHPS			RBHD			LFHD			RFHD			LBHD			LHIP			RHIP			RASI			LASI			LKNE			LTHI			LANK			LTIP			LTOE			LMT1			LMT5			LHEE			RKNE			RTHI			RANK			RTIP			RTOE			RMT1			RMT5			RHEE			
		X1	Y1	Z1	X2	Y2	Z2	X3	Y3	Z3	X4	Y4	Z4	X5	Y5	Z5	X6	Y6	Z6	X7	Y7	Z7	X8	Y8	Z8	X9	Y9	Z9	X10	Y10	Z10	X11	Y11	Z11	X12	Y12	Z12	X13	Y13	Z13	X14	Y14	Z14	X15	Y15	Z15	X16	Y16	Z16	X17	Y17	Z17	X18	Y18	Z18	X19	Y19	Z19	X20	Y20	Z20	X21	Y21	Z21	X22	Y22	Z22	X23	Y23	Z23	X24	Y24	Z24	X25	Y25	Z25	X26	Y26	Z26	X27	Y27	Z27	X28	Y28	Z28	X29	Y29	Z29	X30	Y30	Z30	X31	Y31	Z31	X32	Y32	Z32	X33	Y33	Z33	X34	Y34	Z34	X35	Y35	Z35	X36	Y36	Z36	X37	Y37	Z37	X38	Y38	Z38	X39	Y39	Z39	X40	Y40	Z40	X41	Y41	Z41	X42	Y42	Z42	X43	Y43	Z43	X44	Y44	Z44	X45	Y45	Z45	X46	Y46	Z46	X47	Y47	Z47	X48	Y48	Z48	X49	Y49	Z49	X50	Y50	Z50	X51	Y51	Z51	X52	Y52	Z52	X53	Y53	Z53	

346	3.45	-41.41469955444336	938.78564453125	275.0763244628906	-129.6628265380859	927.09375	163.3962707519531	-69.98356628417969	1038.197143554688	218.8541564941406	112.2562713623047	1239.70703125	21.58655738830566	-94.07396697998047	1161.351196289062	221.7647247314453	-59.96597671508789	1431.401611328125	165.8229522705078	70.92122650146484	1349.648193359375	35.44842910766602	-28.75974464416504	1323.687744140625	285.1286926269531	-148.8545684814453	1369.2021484375	120.330696105957	-130.4138336181641	1380.539306640625	-7.774580478668213	-178.2597808837891	1248.0419921875	-71.53235626220703	-132.7038116455078	1034.844116210938	-107.8804092407227	-148.3583831787109	1015.858581542969	-7.647738456726074	4.134827613830566	861.92724609375	-131.5839233398438	-62.04599761962891	828.6206665039062	-139.3095550537109	-101.5297622680664	952.6436767578125	-129.4043884277344	45.78924560546875	703.4147338867188	-143.2776031494141	-36.31481552124023	755.5967407226562	-147.1983642578125	31.95715713500977	780.62744140625	-152.0568389892578	102.8483963012695	1423.34326171875	233.7097930908203	145.6059722900391	1372.47119140625	305.4622802734375	207.2373504638672	1099.052612304688	381.5428466796875	141.9698028564453	1078.631958007812	385.0725708007812	261.8268432617188	878.9152221679688	312.8312377929688	257.109375	879.9754028320312	400.6609497070312	220.0802764892578	1042.816650390625	395.3627014160156	259.121826171875	724.4813842773438	340.596923828125	274.3719787597656	781.1498413085938	324.52880859375	260.4946594238281	789.2019653320312	400.0945434570312	51.2115478515625	1649.3837890625	94.0853271484375	-65.20628356933594	1607.797241210938	-71.74507141113281	56.80210876464844	1643.414672851562	-43.61091995239258	-120.0969009399414	1606.885864257812	71.15913391113281	-78.05446624755859	823.1782836914062	-9.567216873168945	150.4369506835938	862.1182861328125	313.3153381347656	185.0182952880859	902.9533081054688	196.4878692626953	39.55374908447266	878.337158203125	-10.23438549041748	56.3357048034668	417.0878601074219	34.88384628295898	20.80103874206543	565.3101806640625	-9.101459503173828	21.43998718261719	33.79341888427734	200.1995391845703	49.09245681762695	263.5844116210938	71.6680908203125	226.4427185058594	38.72913360595703	66.97657775878906	198.1968994140625	46.22270202636719	144.1920471191406	108.6576156616211	42.13341522216797	73.66177368164062	43.7257080078125	44.3547248840332	274.07958984375	268.3373413085938	498.4712524414062	304.8686218261719	225.5326080322266	746.3731689453125	298.2846069335938	67.30802917480469	175.7332000732422	544.2005004882812	230.5919952392578	380.249755859375	378.4188842773438	166.8161773681641	53.2005615234375	412.0611877441406	107.2606353759766	86.93637084960938	405.1064758300781	147.1974792480469	80.66442108154297	505.1864929199219	2.614028930664062	220.3394165039062	536.250732421875	
347	3.46	-31.90591239929199	940.1394653320312	273.8126831054688	-123.9287338256836	928.389892578125	165.1834716796875	-62.95018768310547	1039.328735351562	217.8482208251953	114.8518981933594	1240.1953125	15.74946403503418	-87.21241760253906	1162.482666015625	220.18798828125	-53.89365768432617	1432.44287109375	163.1452331542969	74.52097320556641	1350.369873046875	30.60744285583496	-20.79950141906738	1324.62548828125	281.8172302246094	-143.8697357177734	1370.567626953125	119.1355667114258	-127.2758331298828	1382.1005859375	-9.180718421936035	-175.9150390625	1250.142822265625	-73.12508392333984	-129.5001525878906	1037.4052734375	-111.9958114624023	-143.9287872314453	1017.228088378906	-11.9078254699707	10.40230274200439	867.402099609375	-139.2269439697266	-55.15456771850586	832.75	-146.5017700195312	-97.20042419433594	955.9530029296875	-134.6793212890625	55.55079650878906	709.9705200195312	-152.4183044433594	-27.80173301696777	760.2568969726562	-155.1730346679688	39.83860015869141	786.9395751953125	-160.6491546630859	110.0508804321289	1424.102783203125	228.2516479492188	153.6855621337891	1373.222534179688	299.440673828125	214.2428741455078	1099.259155273438	374.8843688964844	148.8727111816406	1079.327392578125	379.1286926269531	266.5370483398438	878.6488647460938	305.7991638183594	262.6087951660156	879.871826171875	393.6726684570312	226.802001953125	1042.954345703125	388.612548828125	263.2759704589844	724.2892456054688	333.9705810546875	278.7334594726562	780.8311157226562	317.6326293945312	265.4728088378906	789.134033203125	393.2742004394531	57.24577713012695	1649.924072265625	89.83757019042969	-61.09680938720703	1609.037841796875	-74.78880310058594	61.40894317626953	1643.854125976562	-47.91456604003906	-114.5317687988281	1608.490234375	68.67211151123047	-78.57463073730469	823.5667724609375	-9.023852348327637	161.5666656494141	863.3982543945312	305.21826171875	191.4134979248047	904.0296630859375	187.2192840576172	39.09249877929688	878.5243530273438	-14.45832633972168	54.67852783203125	417.197998046875	35.30925369262695	19.01619148254395	565.2079467773438	-8.782259941101074	21.3448543548584	33.77037811279297	200.3135986328125	48.16387176513672	263.7322387695312	71.80326843261719	226.2810211181641	38.7598876953125	66.94815063476562	197.9483032226562	46.37293243408203	144.0375061035156	108.4412078857422	42.05324935913086	73.54781341552734	43.81971740722656	44.43485260009766	274.1461181640625	278.9990539550781	499.100830078125	290.9617919921875	236.3514099121094	747.5214233398438	287.071044921875	96.87824249267578	168.9314880371094	535.8910522460938	246.4885559082031	379.4704895019531	364.9642333984375	193.3547821044922	52.84424591064453	395.1677551269531	132.1755218505859	85.06903076171875	392.3866271972656	177.4386444091797	77.52641296386719	489.9966430664062	30.50191497802734	211.5990753173828	532.583251953125	
348	3.47	-22.39630317687988	941.4216918945312	272.4077453613281	-118.0601959228516	929.66455078125	166.9068298339844	-55.93056106567383	1040.429931640625	216.7557525634766	117.3453598022461	1240.528076171875	9.911149024963379	-80.26542663574219	1163.544311523438	218.5001678466797	-47.77741622924805	1433.414428710938	160.4207305908203	78.05030822753906	1350.957397460938	25.71288871765137	-12.83462333679199	1325.501831054688	278.4364624023438	-138.8195648193359	1371.868041992188	117.9516677856445	-124.1698532104492	1383.620483398438	-10.53797245025635	-173.7432708740234	1252.215454101562	-74.58700561523438	-126.4844360351562	1039.993408203125	-116.1165313720703	-139.864501953125	1018.600646972656	-16.2214241027832	16.56818580627441	872.9820556640625	-146.4454498291016	-48.32915496826172	837.1055297851562	-153.7966156005859	-92.98384094238281	959.3683471679688	-139.9912109375	65.05466461181641	716.7191162109375	-161.2693023681641	-19.41930961608887	765.1867065429688	-163.3135681152344	47.61865234375	793.4271850585938	-168.7811889648438	117.2562026977539	1424.726806640625	222.671142578125	161.7551422119141	1373.87109375	293.2979431152344	221.3490142822266	1099.425903320312	368.3097229003906	155.9115753173828	1079.927124023438	373.3504333496094	271.4701843261719	878.5015258789062	298.6065063476562	268.4741821289062	879.7538452148438	386.527587890625	233.7037506103516	1043.055541992188	381.890625	267.8016357421875	724.1781616210938	326.9060668945312	283.4181213378906	780.6325073242188	310.3890686035156	270.8927001953125	789.0349731445312	386.1348266601562	63.28369522094727	1650.36279296875	85.58850860595703	-56.94223403930664	1610.239868164062	-77.82069396972656	66.04166412353516	1644.267700195312	-52.19826126098633	-108.9221954345703	1610.010009765625	66.17747497558594	-78.96466064453125	823.9718627929688	-8.30795955657959	172.4229125976562	864.5071411132812	296.9669494628906	197.6058807373047	905.0004272460938	178.0430603027344	38.63364028930664	878.6005249023438	-18.39579200744629	53.13858413696289	417.314208984375	35.73916244506836	17.3452320098877	565.1260986328125	-8.399989128112793	21.27516555786133	33.74569320678711	200.4137115478516	47.29494094848633	263.8852844238281	71.9613037109375	226.1454620361328	38.79309844970703	66.91230773925781	197.7077331542969	46.50630187988281	143.8711090087891	108.2252197265625	41.97314834594727	73.43492889404297	43.92892456054688	44.50561141967773	274.2200622558594	289.0506896972656	499.4417724609375	276.7819213867188	246.6723480224609	748.4545288085938	275.6673278808594	126.2760848999023	161.9631652832031	525.8491821289062	261.8858947753906	378.3164672851562	350.7262268066406	219.1008911132812	52.53640747070312	376.6905822753906	156.5719909667969	83.12969207763672	378.2244262695312	207.0862579345703	74.48508453369141	473.0392761230469	58.51601028442383	202.5079193115234	527.3109130859375	
349	3.48	-12.91747665405273	942.6066284179688	270.8544921875	-112.0624618530273	930.8965454101562	168.5305786132812	-48.92694091796875	1041.493774414062	215.5365447998047	119.7502670288086	1240.705200195312	4.073000907897949	-73.25313568115234	1164.529296875	216.7048034667969	-41.61043930053711	1434.31005859375	157.6402587890625	81.51323699951172	1351.402465820312	20.76233291625977	-4.854201793670654	1326.30859375	274.9808959960938	-133.6892242431641	1373.1005859375	116.768798828125	-121.0905532836914	1385.082153320312	-11.85427856445312	-171.7168121337891	1254.230102539062	-75.91622924804688	-123.6210174560547	1042.59130859375	-120.2473678588867	-136.1771545410156	1019.951904296875	-20.59161186218262	22.59426307678223	878.6217651367188	-153.2411651611328	-41.62157440185547	841.6536254882812	-161.1492462158203	-88.86565399169922	962.8641357421875	-145.3304748535156	74.25260162353516	723.6153564453125	-169.8721923828125	-11.23672294616699	770.3585205078125	-171.5799407958984	55.23861694335938	800.044189453125	-176.4956207275391	124.4719848632812	1425.201904296875	216.9613189697266	169.8313446044922	1374.398559570312	287.019775390625	228.5853881835938	1099.535034179688	361.7853698730469	163.1228637695312	1080.421752929688	367.71435546875	276.6180419921875	878.4360961914062	291.2547912597656	274.6947631835938	879.5949096679688	379.2206115722656	240.80615234375	1043.099243164062	375.1705017089844	272.6896362304688	724.1134033203125	319.4248657226562	288.4156799316406	780.5227661132812	302.8110046386719	276.7411193847656	788.8793334960938	378.6829223632812	69.32444763183594	1650.695068359375	81.32295989990234	-52.74104309082031	1611.394897460938	-80.8565673828125	70.69709014892578	1644.655883789062	-56.47554016113281	-103.2679901123047	1611.432250976562	63.66134262084961	-79.22056579589844	824.3699340820312	-7.449225425720215	182.9812927246094	865.4392700195312	288.5895690917969	203.5898284912109	905.8593139648438	168.9727478027344	38.19763565063477	878.583740234375	-22.04224395751953	51.74907684326172	417.4270935058594	36.15420532226562	15.82713317871094	565.0612182617188	-7.979449272155762	21.23956489562988	33.72030639648438	200.4989624023438	46.49591827392578	264.0384521484375	72.14509582519531	226.0343780517578	38.82831954956055	66.86595153808594	197.4810485839844	46.62530517578125	143.6930236816406	108.0117111206055	41.89405822753906	73.32646942138672	44.0543212890625	44.56507110595703	274.3033752441406	298.4870910644531	499.5466003417969	262.4104309082031	256.4774780273438	749.1767578125	264.1228332519531	155.3230285644531	154.9648895263672	514.0514526367188	276.7559509277344	376.887939453125	335.7903747558594	243.9539642333984	52.31181335449219	356.8143005371094	180.40087890625	81.15243530273438	362.7283935546875	235.9935455322266	71.65988922119141	454.4511413574219	86.49948883056641	193.1869201660156	520.3322143554688	
